<?xml version="1.0" standalone="no"?>
<!DOCTYPE svg PUBLIC "-//W3C//DTD SVG 20010904//EN"
 "http://www.w3.org/TR/2001/REC-SVG-20010904/DTD/svg10.dtd">
<svg version="1.0" xmlns="http://www.w3.org/2000/svg"
 width="300.000000pt" height="300.000000pt" viewBox="0 0 300.000000 300.000000"
 preserveAspectRatio="xMidYMid meet">
<metadata>
Created by potrace 1.11, written by Peter Selinger 2001-2013
</metadata>
<g transform="translate(0.000000,300.000000) scale(0.100000,-0.100000)"
fill="#000000" stroke="none">
<path d="M0 1500 l0 -1500 1500 0 1500 0 0 1500 0 1500 -1500 0 -1500 0 0
-1500z m452 348 c67 -62 266 -247 442 -411 l321 -298 5 408 c5 393 6 408 24
411 44 9 46 -7 46 -467 0 -240 -4 -442 -9 -450 -6 -9 -17 -11 -32 -7 -13 3
-220 185 -459 404 l-435 398 -5 -391 c-3 -214 -9 -396 -13 -402 -14 -22 -47
-15 -57 13 -14 35 -13 859 0 885 20 36 49 20 172 -93z m1884 101 c198 -27 325
-126 366 -282 19 -76 17 -288 -4 -357 -36 -117 -118 -201 -233 -239 -107 -36
-187 -42 -555 -39 l-355 3 -3 450 c-1 248 0 456 3 463 6 16 666 17 781 1z"/>
<path d="M1630 1495 l0 -415 304 0 c429 0 524 17 617 110 36 36 52 62 67 111
28 90 35 190 22 289 -25 194 -116 280 -324 309 -43 6 -214 11 -382 11 l-304 0
0 -415z"/>
</g>
</svg>
